<svg width="46" height="46" viewBox="0 0 46 46" fill="none" xmlns="http://www.w3.org/2000/svg">
<g filter="url(#filter0_d_17_159)">
<rect x="9" y="9" width="24" height="24" rx="12" fill="#FF7979" shape-rendering="crispEdges"/>
<rect x="9" y="9" width="24" height="24" rx="12" stroke="#FF7979" stroke-opacity="0.5" shape-rendering="crispEdges"/>
</g>
<path d="M19.87 20.89C18.666 20.0873 18.064 19.1587 18.064 18.104C18.064 17.3013 18.3533 16.6993 18.932 16.298C19.3893 15.9713 19.9773 15.808 20.696 15.808C21.5453 15.808 22.208 16.0273 22.684 16.466C23.1413 16.8767 23.37 17.4413 23.37 18.16C23.37 18.7107 23.244 19.1727 22.992 19.546C22.7493 19.9193 22.2827 20.3533 21.592 20.848C23.0947 21.5573 23.846 22.5 23.846 23.676C23.846 24.5347 23.4727 25.1927 22.726 25.65C22.1567 26.0047 21.48 26.182 20.696 26.182C19.7627 26.182 19.0067 25.9533 18.428 25.496C17.8587 25.048 17.574 24.432 17.574 23.648C17.574 22.4813 18.3393 21.562 19.87 20.89ZM20.752 20.414C21.704 19.8167 22.18 19.0467 22.18 18.104C22.18 17.656 22.0493 17.3013 21.788 17.04C21.5267 16.7693 21.172 16.634 20.724 16.634C20.2293 16.634 19.856 16.7833 19.604 17.082C19.3707 17.3433 19.254 17.6887 19.254 18.118C19.254 18.5567 19.366 18.958 19.59 19.322C19.8327 19.7327 20.22 20.0967 20.752 20.414ZM20.738 21.24C20.038 21.576 19.5433 21.9167 19.254 22.262C18.974 22.598 18.834 23.0227 18.834 23.536C18.834 24.0587 19.002 24.4693 19.338 24.768C19.674 25.0573 20.136 25.202 20.724 25.202C21.312 25.202 21.774 25.0527 22.11 24.754C22.4553 24.4553 22.628 24.054 22.628 23.55C22.628 23.0647 22.4833 22.6447 22.194 22.29C21.9047 21.9353 21.4193 21.5853 20.738 21.24Z" fill="white"/>
<defs>
<filter id="filter0_d_17_159" x="0.5" y="0.5" width="45" height="45" filterUnits="userSpaceOnUse" color-interpolation-filters="sRGB">
<feFlood flood-opacity="0" result="BackgroundImageFix"/>
<feColorMatrix in="SourceAlpha" type="matrix" values="0 0 0 0 0 0 0 0 0 0 0 0 0 0 0 0 0 0 127 0" result="hardAlpha"/>
<feOffset dx="2" dy="2"/>
<feGaussianBlur stdDeviation="5"/>
<feComposite in2="hardAlpha" operator="out"/>
<feColorMatrix type="matrix" values="0 0 0 0 1 0 0 0 0 0.563095 0 0 0 0 0.563095 0 0 0 0.2 0"/>
<feBlend mode="normal" in2="BackgroundImageFix" result="effect1_dropShadow_17_159"/>
<feBlend mode="normal" in="SourceGraphic" in2="effect1_dropShadow_17_159" result="shape"/>
</filter>
</defs>
</svg>
