<svg width="798" height="276" viewBox="0 0 798 276" fill="none" xmlns="http://www.w3.org/2000/svg">
<path d="M423.32 125.97C428.11 125.85 432.86 126.3 437.59 126.13C447.117 125.777 456.42 125.643 465.5 125.73C487.86 125.95 510.36 125.54 533 125.82C557.94 126.14 583.773 126.17 610.5 125.91C623.81 125.78 638.05 125.95 651.74 125.78C664.38 125.627 683.363 125.61 708.69 125.73C710.14 125.74 711.48 125.23 712.95 125.22C713.717 125.22 714.113 125.603 714.14 126.37L714.33 132.69C714.333 132.812 714.309 132.933 714.26 133.044C714.211 133.155 714.138 133.255 714.047 133.335C713.955 133.415 713.847 133.474 713.73 133.508C713.613 133.542 713.49 133.549 713.37 133.53C712.157 133.33 710.993 133.227 709.88 133.22C674.08 133.053 639.043 132.907 604.77 132.78C598.303 132.753 591.63 132.757 584.75 132.79C526.157 133.077 467.407 133.07 408.5 132.77C402.093 132.737 395.433 132.813 388.52 133C376.307 133.34 363.867 133.293 351.2 132.86C350.943 132.852 350.687 132.896 350.448 132.99C350.209 133.084 349.991 133.226 349.81 133.407C349.628 133.588 349.485 133.804 349.391 134.042C349.296 134.28 349.252 134.534 349.26 134.79C349.527 145.277 347.93 155.417 344.47 165.21C343.07 169.16 340.52 172.83 338.91 176.87C336.73 182.35 334.043 187.31 330.85 191.75C322.317 203.637 312.11 213.447 300.23 221.18C291.957 226.567 283.833 230.333 275.86 232.48C269.053 234.32 260.34 235.807 249.72 236.94C244.693 237.473 239.837 237.49 235.15 236.99C229.11 236.343 223.427 235.59 218.1 234.73C205.947 232.757 194.913 228.467 185 221.86C176.88 216.44 168.39 210.22 161.97 202.75C152.58 191.83 143.77 178.74 139.69 164.5C136.79 154.38 135.83 143.69 134.11 133.54C133.7 131.12 133.73 128.12 134.1 125.69C135.147 118.73 136.213 111.84 137.3 105.02C139.16 93.3066 143.24 82.6267 149.54 72.98C155.693 63.5533 161.48 56.22 166.9 50.98C170.567 47.44 175.687 43.3767 182.26 38.79C194.173 30.4633 207.287 25.41 221.6 23.63C227.053 22.95 232.847 22.1566 238.98 21.25C240.293 21.0566 242.467 21.0833 245.5 21.33C247.74 21.51 249.89 21.7833 251.95 22.15C257.46 23.12 263.19 23.54 268.66 24.59C282.027 27.17 294.66 33.0666 306.56 42.28C312.207 46.6533 316.413 50.31 319.18 53.25C326.47 61.01 333.31 69.38 337.21 78.63C338.67 82.1033 340.253 85.4266 341.96 88.6C344.82 93.92 346.15 98.75 347.43 104.67C348.957 111.777 349.677 118.493 349.59 124.82C349.587 124.962 349.613 125.103 349.668 125.235C349.722 125.366 349.803 125.485 349.905 125.584C350.008 125.682 350.129 125.759 350.263 125.808C350.396 125.857 350.538 125.878 350.68 125.87C352.127 125.79 353.547 125.75 354.94 125.75C373.347 125.81 392.337 125.92 411.91 126.08C415.543 126.107 419.347 126.07 423.32 125.97ZM341.06 125.63C341.093 125.511 341.103 125.389 341.09 125.27C339.8 113.04 338.15 101.99 333.76 90.62C331.76 85.4333 329.17 80.4267 325.99 75.6C314.31 57.8733 298.65 44.85 279.01 36.53C273.043 33.9966 266.71 32.1667 260.01 31.04C248.13 29.0467 236.643 28.9766 225.55 30.83C217.87 32.1166 211.203 33.9466 205.55 36.32C192.42 41.82 179.03 50.3 169.33 61.09C159.37 72.1633 152 84.7767 147.22 98.93C142.73 112.22 142.07 126.76 143.24 141.03C143.8 147.93 145.05 154.157 146.99 159.71C153.86 179.38 165.7 197.27 182.37 209.53C187.31 213.163 193.17 216.64 199.95 219.96C216.737 228.18 235.123 231.093 255.11 228.7C266.183 227.38 276.5 224.177 286.06 219.09C292.76 215.523 297.903 212.357 301.49 209.59C310.237 202.843 318.14 194.44 325.2 184.38C335.44 169.78 340.01 151.31 340.93 133.41C340.934 133.321 340.92 133.232 340.888 133.149C340.856 133.065 340.806 132.99 340.743 132.927C340.68 132.864 340.605 132.814 340.521 132.782C340.438 132.75 340.349 132.736 340.26 132.74C331.527 133.153 322.123 133.31 312.05 133.21C310.53 133.197 309.767 132.43 309.76 130.91L309.74 127.85C309.733 126.363 310.477 125.603 311.97 125.57C321.61 125.37 331.04 125.593 340.26 126.24C340.653 126.267 340.92 126.063 341.06 125.63Z" fill="#FE805E"/>
<path d="M341.06 125.63C340.92 126.063 340.653 126.267 340.26 126.24C331.04 125.593 321.61 125.37 311.97 125.57C310.477 125.603 309.733 126.363 309.74 127.85L309.76 130.91C309.767 132.43 310.53 133.197 312.05 133.21C322.123 133.31 331.527 133.153 340.26 132.74C340.349 132.736 340.438 132.75 340.521 132.782C340.605 132.814 340.68 132.864 340.743 132.927C340.806 132.99 340.856 133.065 340.888 133.149C340.92 133.232 340.934 133.321 340.93 133.41C340.01 151.31 335.44 169.78 325.2 184.38C318.14 194.44 310.237 202.843 301.49 209.59C297.903 212.357 292.76 215.523 286.06 219.09C276.5 224.177 266.183 227.38 255.11 228.7C235.123 231.093 216.737 228.18 199.95 219.96C193.17 216.64 187.31 213.163 182.37 209.53C165.7 197.27 153.86 179.38 146.99 159.71C145.05 154.157 143.8 147.93 143.24 141.03C142.07 126.76 142.73 112.22 147.22 98.9299C152 84.7766 159.37 72.1632 169.33 61.0899C179.03 50.2999 192.42 41.8199 205.55 36.3199C211.203 33.9466 217.87 32.1166 225.55 30.8299C236.643 28.9766 248.13 29.0466 260.01 31.0399C266.71 32.1666 273.043 33.9966 279.01 36.5299C298.65 44.8499 314.31 57.8732 325.99 75.5999C329.17 80.4266 331.76 85.4332 333.76 90.6199C338.15 101.99 339.8 113.04 341.09 125.27C341.103 125.389 341.093 125.511 341.06 125.63ZM206.98 77.9899C205.08 82.9432 202.85 87.8032 200.29 92.5699C198.703 95.5299 197.187 98.5265 195.74 101.56C191.6 110.24 187.02 118.5 182.86 127.09C180.95 131.02 183.97 133.84 185.98 136.76C186.747 138.333 187.57 139.843 188.45 141.29C195.11 152.3 202.25 163.34 208.07 174.94C208.823 176.447 210.05 177.377 211.75 177.73C220.29 179.5 229.49 178.56 238.26 178.19C248.573 179.39 258.9 179.65 269.24 178.97C270.593 178.883 271.573 178.263 272.18 177.11C274.193 173.27 276.563 169.117 279.29 164.65C282.13 160 283.63 154.56 286.48 149.98C287.747 147.953 289.033 145.77 290.34 143.43C290.86 142.49 290.97 141.47 291.44 140.53C292.88 137.663 294.41 134.76 296.03 131.82C297.97 128.29 298.36 124.76 296.24 121.35C293.813 116.277 290.77 113.623 287.11 113.39C280.923 113.517 275.847 114.273 271.88 115.66C270.813 116.033 269.497 116.777 267.93 117.89C266.983 118.57 266.003 119.207 264.99 119.8C263.817 120.493 262.807 121.423 261.96 122.59C261.74 122.897 261.457 123.123 261.11 123.27C259.537 123.93 258.1 124.33 256.8 124.47C253.18 124.857 249.763 125.157 246.55 125.37C244.99 125.47 243.203 125.673 241.19 125.98C239.59 126.22 238.767 125.663 238.72 124.31L232.24 114.73C232.132 114.571 231.982 114.445 231.807 114.366C231.632 114.288 231.438 114.26 231.247 114.286C231.057 114.312 230.878 114.391 230.73 114.514C230.582 114.636 230.471 114.798 230.41 114.98L229.15 118.69C229.027 119.074 228.789 119.412 228.47 119.66C227.69 120.273 227.167 120.973 226.9 121.76C225.94 124.58 226.027 127.207 227.16 129.64C227.967 132.673 229.553 134.967 231.92 136.52C233.307 137.427 234.84 137.883 236.52 137.89C244.587 137.923 252.027 138.017 258.84 138.17C259.213 138.183 259.583 138.093 259.91 137.91C260.623 137.51 261.383 137.433 262.19 137.68C262.523 137.78 262.71 138 262.75 138.34C262.883 139.387 262.807 140.53 262.52 141.77L257.08 152C256.745 152.628 256.246 153.153 255.637 153.52C255.027 153.886 254.33 154.08 253.62 154.08C246.02 154.06 238.167 154.043 230.06 154.03C227.17 154.03 224.99 153.49 223.37 150.98C221.74 148.46 219.9 145.99 218.43 143.34C215.89 138.753 213.407 134.283 210.98 129.93C210.711 129.45 210.578 128.906 210.596 128.356C210.613 127.806 210.781 127.272 211.08 126.81C212.073 125.283 212.93 123.707 213.65 122.08C215.71 117.427 217.673 113.2 219.54 109.4C220.547 107.36 221.82 105.25 223.36 103.07C224.313 101.723 225.53 101.073 227.01 101.12C239.87 101.56 253.19 101.793 266.97 101.82C268.357 101.827 269.41 101.257 270.13 100.11C271.95 97.2499 275 92.0699 274.42 88.5199C273.833 84.9066 272.307 81.3699 269.84 77.9099C269.287 77.1366 268.023 76.7432 266.05 76.7299C263.217 76.2499 260.377 75.9266 257.53 75.7599C254.41 75.5732 251.537 75.2966 248.91 74.9299C245.143 74.3966 241.4 74.3232 237.68 74.7099C234.65 75.0199 231.7 74.8199 228.65 74.9599C223.93 75.1799 219.44 74.5399 214.52 74.6499C211.48 74.7166 208.967 75.8299 206.98 77.9899ZM256.28 189.53C256.22 189.457 256.157 189.393 256.09 189.34C256.017 189.28 255.933 189.253 255.84 189.26C251.64 189.353 247.467 189.38 243.32 189.34C243.24 189.34 243.167 189.37 243.1 189.43C243.06 189.463 243.023 189.497 242.99 189.53C242.93 189.583 242.863 189.61 242.79 189.61C226.45 189.44 210.18 190.4 193.83 190.92C193.79 190.92 193.763 190.937 193.75 190.97L193.6 191.24C193.5 191.433 193.557 191.537 193.77 191.55C200.717 191.977 206.383 192.213 210.77 192.26C225.87 192.41 241.32 192.79 256.77 192.71C261.29 192.69 266.26 192.42 271.68 191.9C276.467 191.433 281.46 191.17 286.66 191.11C286.74 191.11 286.823 191.097 286.91 191.07C286.997 191.043 287.02 190.963 286.98 190.83C286.953 190.737 286.89 190.69 286.79 190.69C276.65 190.06 266.51 189.52 256.5 189.63C256.413 189.63 256.34 189.597 256.28 189.53Z" fill="white"/>
<path d="M266.05 76.7301L254.36 77.3401C254.027 77.3601 253.787 77.5167 253.64 77.8101C253.54 78.0034 253.383 78.1034 253.17 78.1101C252.337 78.1434 251.59 78.3634 250.93 78.7701C250.698 78.9137 250.509 79.1189 250.386 79.3629C250.263 79.6069 250.21 79.8803 250.233 80.1526C250.256 80.4249 250.354 80.6856 250.515 80.9058C250.677 81.126 250.897 81.2971 251.15 81.4001C253.303 82.2667 255.243 83.1201 256.97 83.9601C257.077 84.0134 257.157 84.0967 257.21 84.2101C257.29 84.4234 257.44 84.5601 257.66 84.6201C261.353 85.7201 265.11 86.1401 268.93 85.8801C269.178 85.8648 269.424 85.9076 269.65 86.0049C269.876 86.1023 270.075 86.2514 270.23 86.4401C270.503 86.7734 270.633 87.1501 270.62 87.5701C270.616 87.6784 270.589 87.7847 270.54 87.8816C270.492 87.9786 270.423 88.064 270.339 88.1322C270.254 88.2004 270.156 88.2498 270.051 88.277C269.946 88.3043 269.837 88.3087 269.73 88.2901C266.43 87.7234 263.367 87.6867 260.54 88.1801C258.68 88.5067 256.793 88.7067 254.88 88.7801C249.58 88.9934 244.423 88.9734 239.41 88.7201C232.43 88.3601 226.9 88.3201 220.76 88.2601C218.047 88.2267 216.33 89.2267 215.61 91.2601C215.483 91.6067 215.293 91.9101 215.04 92.1701C214.46 92.7501 214.45 94.1601 214.03 95.0301C213.157 96.8367 212.283 98.6334 211.41 100.42C210.95 101.353 210.413 102.213 209.8 103C209.013 103.993 208.503 105.183 208.27 106.57C208.198 106.981 208.007 107.364 207.72 107.67C206.133 109.37 205.023 111.16 204.39 113.04C203.757 114.933 203.01 116.593 202.15 118.02C201.357 119.347 200.677 120.65 200.11 121.93C199.45 123.417 198.573 124.93 197.48 126.47C197.223 126.835 197.093 127.274 197.111 127.719C197.129 128.164 197.294 128.59 197.58 128.93C198.367 129.883 199.133 130.79 199.88 131.65C200.127 131.93 200.273 132.29 200.32 132.73C200.353 133.063 200.48 133.357 200.7 133.61C201.24 134.25 201.62 134.963 201.84 135.75C202.033 136.443 202.303 137.1 202.65 137.72C203.717 139.653 204.76 141.583 205.78 143.51C206.027 143.977 206.183 144.49 206.25 145.05C206.317 145.577 206.503 146.077 206.81 146.55C210.343 151.977 213.377 157.223 215.91 162.29C216.45 163.37 217.33 164.03 217.95 165.06C218.118 165.344 218.38 165.56 218.69 165.67C220.337 166.29 221.963 166.597 223.57 166.59C228.863 166.57 234.19 166.53 239.55 166.47C242.87 166.43 246.057 166.18 249.11 165.72C252.343 165.227 255.633 165.157 258.98 165.51C260.88 165.7 262.63 165.19 263.59 163.44C265.757 159.5 267.777 155.633 269.65 151.84C271.64 147.8 274.28 144.3 275.97 140.05C276.076 139.784 276.113 139.496 276.079 139.212C276.044 138.928 275.939 138.658 275.773 138.425C275.607 138.192 275.385 138.005 275.128 137.88C274.87 137.755 274.586 137.697 274.3 137.71C272.727 137.777 271.06 137.74 269.3 137.6C266.13 137.34 263.77 138.9 262.52 141.77C262.807 140.53 262.883 139.387 262.75 138.34C262.71 138 262.523 137.78 262.19 137.68C261.383 137.433 260.623 137.51 259.91 137.91C259.583 138.093 259.213 138.183 258.84 138.17C252.027 138.017 244.587 137.923 236.52 137.89C234.84 137.883 233.307 137.427 231.92 136.52C229.553 134.967 227.967 132.673 227.16 129.64L230.72 133.74C230.83 133.867 230.968 133.966 231.123 134.031C231.277 134.096 231.445 134.124 231.612 134.113C231.78 134.103 231.942 134.053 232.088 133.97C232.233 133.886 232.357 133.77 232.45 133.63L238.72 124.31C238.767 125.663 239.59 126.22 241.19 125.98C243.203 125.673 244.99 125.47 246.55 125.37C249.763 125.157 253.18 124.857 256.8 124.47C258.1 124.33 259.537 123.93 261.11 123.27C261.457 123.123 261.74 122.897 261.96 122.59C262.807 121.423 263.817 120.493 264.99 119.8C266.003 119.207 266.983 118.57 267.93 117.89C269.497 116.777 270.813 116.033 271.88 115.66C275.847 114.273 280.923 113.517 287.11 113.39C285.89 113.777 284.763 114.02 283.73 114.12C281.537 114.333 280.403 114.45 280.33 114.47C278.077 115.05 276.04 116.197 274.22 117.91C274.069 118.051 273.95 118.222 273.869 118.411C273.788 118.601 273.748 118.806 273.751 119.012C273.754 119.218 273.799 119.421 273.885 119.609C273.971 119.796 274.096 119.963 274.25 120.1L275.7 121.39C275.926 121.59 276.215 121.707 276.52 121.72C282.087 122.04 287.513 122.16 292.8 122.08C293.72 122.06 294.45 122.49 295.34 122.6C295.727 122.647 295.967 122.48 296.06 122.1L296.24 121.35C298.36 124.76 297.97 128.29 296.03 131.82C294.41 134.76 292.88 137.663 291.44 140.53C290.97 141.47 290.86 142.49 290.34 143.43C289.033 145.77 287.747 147.953 286.48 149.98C283.63 154.56 282.13 160 279.29 164.65C276.563 169.117 274.193 173.27 272.18 177.11C271.573 178.263 270.593 178.883 269.24 178.97C258.9 179.65 248.573 179.39 238.26 178.19C238.973 177.923 240.11 177.863 241.67 178.01C242.957 178.137 243.443 177.57 243.13 176.31L242.33 173.17C242.276 172.96 242.178 172.765 242.042 172.597C241.905 172.43 241.734 172.294 241.54 172.2C239.593 171.273 237.563 170.573 235.45 170.1C234.19 169.82 233.61 169.12 232.09 169.3C231.183 169.407 230.257 169.363 229.31 169.17C225.677 168.43 222.173 167.99 218.8 167.85C218.117 167.822 217.453 167.618 216.873 167.257C216.293 166.896 215.816 166.39 215.49 165.79C214.39 163.737 213.353 161.673 212.38 159.6C211.093 156.833 209.287 153.823 206.96 150.57C205.52 148.55 204.58 146.25 203.66 143.93C203.067 142.45 202.173 140.767 200.98 138.88C199.2 136.08 197.39 133.3 195.55 130.54C194.437 128.873 194.36 127.147 195.32 125.36C196.533 122.8 197.84 120.257 199.24 117.73C199.827 116.67 200.37 115.583 200.87 114.47C201.377 113.363 201.92 112.27 202.5 111.19C203.367 109.57 204.17 107.93 204.91 106.27C206.363 103.003 208.1 99.9334 210.12 97.0601C212.05 94.3201 212.5 91.3001 214.54 88.7901C214.807 88.4634 214.9 88.0934 214.82 87.6801C214.16 84.1801 211.29 81.1001 209.27 78.1601C209.103 77.9134 208.873 77.8067 208.58 77.8401L206.98 77.9901C208.967 75.8301 211.48 74.7167 214.52 74.6501C219.44 74.5401 223.93 75.1801 228.65 74.9601C231.7 74.8201 234.65 75.0201 237.68 74.7101C241.4 74.3234 245.143 74.3967 248.91 74.9301C251.537 75.2967 254.41 75.5734 257.53 75.7601C260.377 75.9267 263.217 76.2501 266.05 76.7301Z" fill="#B5B5B5"/>
<path d="M266.05 76.73C268.023 76.7433 269.287 77.1366 269.84 77.91C272.307 81.37 273.833 84.9066 274.42 88.52C275 92.07 271.95 97.25 270.13 100.11C269.41 101.257 268.357 101.827 266.97 101.82C253.19 101.793 239.87 101.56 227.01 101.12C225.53 101.073 224.313 101.723 223.36 103.07C221.82 105.25 220.547 107.36 219.54 109.4C217.673 113.2 215.71 117.427 213.65 122.08C212.93 123.707 212.073 125.283 211.08 126.81C210.781 127.272 210.613 127.806 210.596 128.356C210.578 128.906 210.711 129.45 210.98 129.93C213.407 134.283 215.89 138.753 218.43 143.34C219.9 145.99 221.74 148.46 223.37 150.98C224.99 153.49 227.17 154.03 230.06 154.03C238.167 154.043 246.02 154.06 253.62 154.08C254.33 154.08 255.027 153.886 255.637 153.52C256.246 153.153 256.745 152.628 257.08 152L262.52 141.77C263.77 138.9 266.13 137.34 269.3 137.6C271.06 137.74 272.727 137.777 274.3 137.71C274.586 137.696 274.87 137.755 275.128 137.88C275.385 138.004 275.607 138.192 275.773 138.425C275.939 138.658 276.044 138.928 276.079 139.212C276.113 139.496 276.076 139.784 275.97 140.05C274.28 144.3 271.64 147.8 269.65 151.84C267.777 155.633 265.757 159.5 263.59 163.44C262.63 165.19 260.88 165.7 258.98 165.51C255.633 165.157 252.343 165.227 249.11 165.72C246.057 166.18 242.87 166.43 239.55 166.47C234.19 166.53 228.863 166.57 223.57 166.59C221.963 166.597 220.337 166.29 218.69 165.67C218.38 165.56 218.118 165.344 217.95 165.06C217.33 164.03 216.45 163.37 215.91 162.29C213.377 157.223 210.343 151.977 206.81 146.55C206.503 146.077 206.317 145.577 206.25 145.05C206.183 144.49 206.027 143.977 205.78 143.51C204.76 141.583 203.717 139.653 202.65 137.72C202.303 137.1 202.033 136.443 201.84 135.75C201.62 134.963 201.24 134.25 200.7 133.61C200.48 133.357 200.353 133.063 200.32 132.73C200.273 132.29 200.127 131.93 199.88 131.65C199.133 130.79 198.367 129.883 197.58 128.93C197.294 128.59 197.129 128.164 197.111 127.719C197.093 127.274 197.222 126.835 197.48 126.47C198.573 124.93 199.45 123.417 200.11 121.93C200.677 120.65 201.357 119.347 202.15 118.02C203.01 116.593 203.757 114.933 204.39 113.04C205.023 111.16 206.133 109.37 207.72 107.67C208.007 107.364 208.198 106.981 208.27 106.57C208.503 105.183 209.013 103.993 209.8 103C210.413 102.213 210.95 101.353 211.41 100.42C212.283 98.6333 213.157 96.8366 214.03 95.03C214.45 94.16 214.46 92.75 215.04 92.17C215.293 91.91 215.483 91.6066 215.61 91.26C216.33 89.2266 218.047 88.2266 220.76 88.26C226.9 88.32 232.43 88.36 239.41 88.72C244.423 88.9733 249.58 88.9933 254.88 88.78C256.793 88.7066 258.68 88.5066 260.54 88.18C263.367 87.6866 266.43 87.7233 269.73 88.29C269.837 88.3086 269.946 88.3042 270.051 88.2769C270.156 88.2497 270.254 88.2003 270.339 88.1321C270.423 88.0639 270.492 87.9785 270.54 87.8815C270.589 87.7846 270.616 87.6783 270.62 87.57C270.633 87.15 270.503 86.7733 270.23 86.44C270.075 86.2513 269.876 86.1022 269.65 86.0048C269.424 85.9075 269.177 85.8647 268.93 85.88C265.11 86.14 261.353 85.72 257.66 84.62C257.44 84.56 257.29 84.4233 257.21 84.21C257.157 84.0966 257.077 84.0133 256.97 83.96C255.243 83.12 253.303 82.2666 251.15 81.4C250.897 81.297 250.677 81.1259 250.515 80.9057C250.353 80.6855 250.256 80.4248 250.233 80.1525C250.21 79.8802 250.263 79.6068 250.386 79.3628C250.509 79.1188 250.697 78.9136 250.93 78.77C251.59 78.3633 252.337 78.1433 253.17 78.11C253.383 78.1033 253.54 78.0033 253.64 77.81C253.787 77.5166 254.027 77.36 254.36 77.34L266.05 76.73Z" fill="#4B4B4B"/>
<path d="M195.32 125.36C194.14 126.16 193.733 127.42 194.1 129.14C194.59 131.44 196.76 133.3 195.42 135.81C195.254 136.126 194.978 136.372 194.644 136.502C194.31 136.633 193.94 136.639 193.6 136.52L189.91 135.23C189.57 135.103 189.267 135.167 189 135.42C188.54 135.847 188.24 136.32 188.1 136.84C187.987 137.253 187.743 137.357 187.37 137.15C186.917 136.897 186.453 136.767 185.98 136.76C183.97 133.84 180.95 131.02 182.86 127.09C187.02 118.5 191.6 110.24 195.74 101.56C197.187 98.5266 198.703 95.5299 200.29 92.5699C202.85 87.8033 205.08 82.9433 206.98 77.9899L208.58 77.8399C208.873 77.8066 209.103 77.9133 209.27 78.1599C211.29 81.0999 214.16 84.1799 214.82 87.6799C214.9 88.0933 214.807 88.4633 214.54 88.7899C212.5 91.2999 212.05 94.3199 210.12 97.0599C208.1 99.9333 206.363 103.003 204.91 106.27C204.17 107.93 203.367 109.57 202.5 111.19C201.92 112.27 201.377 113.363 200.87 114.47C200.37 115.583 199.827 116.67 199.24 117.73C197.84 120.257 196.533 122.8 195.32 125.36Z" fill="#161616"/>
<path d="M408.97 109.96L408.98 109.22C408.993 106.36 407.573 104.913 404.72 104.88L395.44 104.77C394.393 104.757 393.92 104.23 394.02 103.19L394.08 102.66C394.2 101.44 394.87 100.837 396.09 100.85L411.6 101.03C412.64 101.037 413.22 101.557 413.34 102.59C413.627 104.99 413.663 107.833 413.45 111.12C413.16 115.56 411.04 118.15 406.6 118.2C400.067 118.273 392.753 118.323 384.66 118.35C379.68 118.37 376.13 116.04 376.27 110.41C376.423 104.137 376.51 97.8667 376.53 91.6C376.55 86.79 381.76 85.36 385.7 85.51C391.673 85.7367 397.887 85.7533 404.34 85.56C408.97 85.42 414.54 87.17 413.14 93.08C413.053 93.4533 412.83 93.7067 412.47 93.84C411.377 94.24 410.507 93.9667 409.86 93.02C408.187 90.6 405.873 89.4267 402.92 89.5C396.847 89.6467 390.673 89.5567 384.4 89.23C383.971 89.2077 383.541 89.2744 383.139 89.4259C382.737 89.5774 382.37 89.8104 382.063 90.1102C381.756 90.41 381.514 90.77 381.354 91.1676C381.193 91.5651 381.117 91.9916 381.13 92.42C381.29 98.04 381.22 103.647 380.92 109.24C380.74 112.607 382.333 114.21 385.7 114.05C391.96 113.76 398.44 113.91 404.85 114C407.583 114.04 408.957 112.693 408.97 109.96Z" fill="#FE805E"/>
<path d="M688.47 101.48C689.837 102.22 691.22 101.967 692.62 100.72C697.09 96.72 701.8 92.79 707.3 90.5C708.093 90.1734 708.753 90.1167 709.28 90.33C709.462 90.403 709.622 90.5235 709.742 90.679C709.862 90.8345 709.939 91.0193 709.963 91.2143C709.988 91.4092 709.959 91.6072 709.881 91.7876C709.804 91.968 709.679 92.1242 709.52 92.24C705.733 95.02 702.09 97.7967 698.59 100.57C697.09 101.77 695.27 102.5 693.96 103.92C693.04 104.92 693.19 105.723 694.41 106.33C697.35 107.8 700.3 109.18 703.05 111.06C705.263 112.573 707.533 113.967 709.86 115.24C711.147 115.94 711.84 117.02 711.94 118.48C711.96 118.727 711.923 118.957 711.83 119.17C711.457 120.07 710.823 120.32 709.93 119.92C704.277 117.38 698.513 113.853 692.64 109.34C691.987 108.833 691.243 108.43 690.41 108.13C690.105 108.02 689.778 107.986 689.458 108.032C689.137 108.078 688.833 108.203 688.571 108.394C688.31 108.586 688.101 108.84 687.961 109.132C687.821 109.424 687.756 109.746 687.77 110.07L688.07 116.51C688.13 117.87 687.483 118.63 686.13 118.79C685.643 118.85 685.153 118.817 684.66 118.69C683.72 118.45 683.18 117.853 683.04 116.9C682.847 115.593 682.8 114.203 682.9 112.73C683.373 105.95 683.34 99.4934 682.8 93.36C682.7 92.2467 683.2 91.5967 684.3 91.41L686.07 91.11C687.23 90.9167 687.82 91.4067 687.84 92.58L687.94 100.61C687.947 101.003 688.123 101.293 688.47 101.48Z" fill="#FE805E"/>
<path d="M598.17 94.93L588.6 94.82C587.467 94.8067 586.907 94.2333 586.92 93.1L586.93 92.6C586.95 91.4733 587.523 90.9 588.65 90.88L616.09 90.47C616.428 90.4638 616.76 90.5653 617.04 90.76C617.92 91.3733 618.34 92.0133 618.3 92.68C618.233 93.8533 617.613 94.5033 616.44 94.63L606.49 95.72C605.996 95.7752 605.541 96.015 605.216 96.3915C604.892 96.768 604.722 97.2533 604.74 97.75L605.45 116C605.523 117.873 604.623 118.79 602.75 118.75L602.38 118.74C600.687 118.7 599.85 117.83 599.87 116.13L600.11 96.92C600.113 96.6613 600.064 96.4046 599.968 96.1645C599.872 95.9245 599.73 95.7059 599.55 95.5211C599.37 95.3363 599.155 95.189 598.919 95.0876C598.682 94.9861 598.427 94.9326 598.17 94.93Z" fill="#FE805E"/>
<path d="M641.03 98.13C640.997 98.3566 640.963 98.6033 640.93 98.87C640.597 101.27 641.64 102.48 644.06 102.5L653.3 102.59C653.519 102.593 653.733 102.652 653.919 102.761C654.105 102.87 654.257 103.025 654.36 103.21C654.633 103.69 654.663 104.133 654.45 104.54C653.97 105.473 653.207 105.957 652.16 105.99L644.01 106.24C642.07 106.3 641.08 107.3 641.04 109.24L641 111.11C640.953 113.237 641.993 114.29 644.12 114.27L661.51 114.1C662.637 114.093 663.147 114.647 663.04 115.76L662.91 117.1C662.797 118.253 662.16 118.803 661 118.75C654.54 118.443 647.57 118.513 640.09 118.96C636.903 119.147 635.363 117.66 635.47 114.5C635.69 107.74 635.647 100.477 635.34 92.71C635.327 92.3181 635.459 91.9352 635.713 91.6358C635.966 91.3364 636.321 91.1418 636.71 91.0899C639.957 90.6766 643.117 90.49 646.19 90.53C650.977 90.59 655.973 90.6633 661.18 90.75C662.48 90.7766 663.097 91.4366 663.03 92.73L663 93.18C662.94 94.4066 662.297 95.0133 661.07 95L644.8 94.87C642.587 94.85 641.33 95.9366 641.03 98.13Z" fill="#FE805E"/>
<path d="M441.09 97.65L441 100.09C440.94 101.703 441.72 102.533 443.34 102.58L454.73 102.9C454.876 102.906 455.019 102.945 455.147 103.012C455.275 103.08 455.386 103.175 455.47 103.29C455.803 103.743 455.87 104.13 455.67 104.45C455.17 105.23 454.447 105.66 453.5 105.74C450.167 106.007 446.767 106.11 443.3 106.05C441.747 106.023 441.043 106.783 441.19 108.33L441.6 112.52C441.727 113.833 442.45 114.483 443.77 114.47L462.79 114.22C463.87 114.207 464.333 114.733 464.18 115.8L464.02 116.95C463.88 117.95 463.307 118.453 462.3 118.46L439.18 118.59C438.679 118.593 438.192 118.426 437.799 118.115C437.406 117.804 437.132 117.368 437.02 116.88C436.72 115.593 436.6 114.307 436.66 113.02C436.973 106.127 437.087 99.2867 437 92.5C436.997 92.16 437.125 91.8319 437.358 91.5842C437.591 91.3364 437.91 91.188 438.25 91.17C446.597 90.6833 454.817 90.7367 462.91 91.33C463.074 91.341 463.234 91.3854 463.381 91.4604C463.528 91.5355 463.658 91.6396 463.763 91.7667C463.869 91.8937 463.948 92.041 463.995 92.1997C464.043 92.3584 464.058 92.5251 464.04 92.69L463.98 93.23C463.943 93.5525 463.795 93.8515 463.56 94.0747C463.326 94.2978 463.022 94.4307 462.7 94.45C460.493 94.5833 459.093 94.6333 458.5 94.6C453.967 94.3267 449.083 94.39 443.85 94.79C442.077 94.9233 441.157 95.8767 441.09 97.65Z" fill="#FE805E"/>
<path d="M488.53 98.5599C488.403 99.5466 488.347 100.52 488.36 101.48C488.407 106.727 488.45 111.797 488.49 116.69C488.495 117.161 488.356 117.622 488.093 118.012C487.829 118.402 487.453 118.702 487.015 118.874C486.577 119.045 486.097 119.079 485.639 118.971C485.18 118.864 484.766 118.619 484.45 118.27C484.363 118.177 484.277 118.073 484.19 117.96C483.879 117.552 483.714 117.048 483.72 116.53L484.02 92.2699C484.024 92.0108 484.089 91.7563 484.21 91.527C484.331 91.2978 484.504 91.1001 484.715 90.9502C484.926 90.8002 485.17 90.7021 485.426 90.6638C485.682 90.6256 485.944 90.6482 486.19 90.7299C487.397 91.1366 488.423 91.7199 489.27 92.4799C496.14 98.6299 502.79 105.81 511.17 110.39C511.238 110.428 511.315 110.445 511.393 110.439C511.47 110.433 511.545 110.405 511.608 110.358C511.671 110.311 511.719 110.247 511.748 110.173C511.777 110.099 511.784 110.018 511.77 109.94C511.28 107.54 510.8 105.19 510.8 102.71C510.813 99.3299 510.697 96.0832 510.45 92.9699C510.363 91.9099 510.85 91.3566 511.91 91.3099L514.32 91.1899C515.373 91.1432 515.873 91.6466 515.82 92.6999C515.433 99.9932 515.48 107.88 515.96 116.36C515.993 116.953 515.897 117.517 515.67 118.05C515.557 118.326 515.342 118.549 515.069 118.673C514.797 118.797 514.486 118.814 514.2 118.72C512.64 118.193 511.247 117.443 510.02 116.47C502.72 110.67 495.917 104.58 489.61 98.1999C489.003 97.5866 488.643 97.7066 488.53 98.5599Z" fill="#FE805E"/>
<path d="M569.54 113.195C569.545 114.531 569.018 115.815 568.077 116.764C567.135 117.712 565.855 118.248 564.518 118.252L542.978 118.327C542.316 118.33 541.66 118.202 541.048 117.951C540.436 117.699 539.879 117.33 539.409 116.864C538.939 116.397 538.566 115.843 538.311 115.232C538.055 114.622 537.923 113.967 537.92 113.305L537.86 95.8652C537.855 94.5285 538.382 93.2447 539.323 92.2963C540.265 91.3478 541.545 90.8123 542.882 90.8077L564.422 90.7325C565.084 90.7301 565.74 90.8582 566.352 91.1094C566.964 91.3605 567.521 91.7298 567.991 92.1962C568.461 92.6626 568.834 93.2169 569.089 93.8275C569.344 94.4381 569.477 95.093 569.479 95.7549L569.54 113.195ZM565.004 97.8405C565.007 97.0448 564.693 96.2807 564.133 95.7161C563.572 95.1516 562.81 94.8328 562.014 94.8301L544.814 94.77C544.421 94.7686 544.03 94.8448 543.666 94.9943C543.301 95.1438 542.97 95.3637 542.69 95.6413C542.411 95.9189 542.188 96.2488 542.036 96.6123C541.884 96.9757 541.805 97.3656 541.804 97.7596L541.756 111.499C541.753 112.295 542.067 113.059 542.627 113.624C543.188 114.188 543.95 114.507 544.746 114.51L561.945 114.57C562.339 114.571 562.73 114.495 563.094 114.346C563.459 114.196 563.79 113.976 564.07 113.699C564.349 113.421 564.572 113.091 564.724 112.728C564.876 112.364 564.954 111.974 564.956 111.58L565.004 97.8405Z" fill="#FE805E"/>
<path d="M562.014 94.83L544.814 94.77C543.158 94.7642 541.81 96.1027 541.804 97.7595L541.756 111.499C541.75 113.156 543.089 114.504 544.746 114.51L561.945 114.57C563.602 114.576 564.95 113.237 564.956 111.58L565.004 97.8405C565.01 96.1836 563.671 94.8358 562.014 94.83Z" fill="white"/>
<path d="M287.11 113.39C290.77 113.623 293.813 116.277 296.24 121.35L296.06 122.1C295.967 122.48 295.727 122.647 295.34 122.6C294.45 122.49 293.72 122.06 292.8 122.08C287.513 122.16 282.087 122.04 276.52 121.72C276.215 121.707 275.926 121.59 275.7 121.39L274.25 120.1C274.096 119.963 273.971 119.796 273.885 119.608C273.799 119.421 273.753 119.218 273.751 119.012C273.748 118.805 273.788 118.601 273.869 118.411C273.95 118.221 274.069 118.051 274.22 117.91C276.04 116.197 278.077 115.05 280.33 114.47C280.403 114.45 281.537 114.333 283.73 114.12C284.763 114.02 285.89 113.777 287.11 113.39Z" fill="#4B4B4B"/>
<path d="M238.72 124.31L232.45 133.63C232.357 133.77 232.233 133.886 232.088 133.97C231.942 134.053 231.78 134.102 231.612 134.113C231.445 134.124 231.277 134.096 231.122 134.031C230.968 133.966 230.83 133.867 230.72 133.74L227.16 129.64C226.027 127.207 225.94 124.58 226.9 121.76C227.167 120.973 227.69 120.273 228.47 119.66C228.79 119.412 229.027 119.074 229.15 118.69L230.41 114.98C230.471 114.798 230.582 114.636 230.73 114.514C230.878 114.391 231.057 114.312 231.247 114.286C231.438 114.26 231.632 114.288 231.807 114.366C231.982 114.445 232.132 114.571 232.24 114.73L238.72 124.31Z" fill="#161616"/>
<path d="M195.32 125.36C194.36 127.147 194.437 128.873 195.55 130.54C197.39 133.3 199.2 136.08 200.98 138.88C202.173 140.767 203.067 142.45 203.66 143.93C204.58 146.25 205.52 148.55 206.96 150.57C209.287 153.823 211.093 156.833 212.38 159.6C213.353 161.673 214.39 163.737 215.49 165.79C215.816 166.39 216.293 166.896 216.873 167.257C217.453 167.618 218.117 167.822 218.8 167.85C222.173 167.99 225.677 168.43 229.31 169.17C230.257 169.363 231.183 169.407 232.09 169.3C233.61 169.12 234.19 169.82 235.45 170.1C237.563 170.573 239.593 171.273 241.54 172.2C241.734 172.294 241.905 172.43 242.042 172.597C242.178 172.765 242.276 172.96 242.33 173.17L243.13 176.31C243.443 177.57 242.957 178.137 241.67 178.01C240.11 177.863 238.973 177.923 238.26 178.19C229.49 178.56 220.29 179.5 211.75 177.73C210.05 177.377 208.823 176.447 208.07 174.94C202.25 163.34 195.11 152.3 188.45 141.29C187.57 139.843 186.747 138.333 185.98 136.76C186.453 136.767 186.917 136.897 187.37 137.15C187.743 137.357 187.987 137.253 188.1 136.84C188.24 136.32 188.54 135.847 189 135.42C189.267 135.167 189.57 135.103 189.91 135.23L193.6 136.52C193.94 136.639 194.31 136.633 194.644 136.503C194.978 136.372 195.254 136.126 195.42 135.81C196.76 133.3 194.59 131.44 194.1 129.14C193.733 127.42 194.14 126.16 195.32 125.36Z" fill="#4B4B4B"/>
<path d="M256.5 189.63C266.51 189.52 276.65 190.06 286.79 190.69C286.89 190.69 286.953 190.737 286.98 190.83C287.02 190.963 286.997 191.043 286.91 191.07C286.823 191.097 286.74 191.11 286.66 191.11C281.46 191.17 276.467 191.433 271.68 191.9C266.26 192.42 261.29 192.69 256.77 192.71C241.32 192.79 225.87 192.41 210.77 192.26C206.383 192.213 200.717 191.977 193.77 191.55C193.557 191.537 193.5 191.433 193.6 191.24L193.75 190.97C193.763 190.937 193.79 190.92 193.83 190.92C210.18 190.4 226.45 189.44 242.79 189.61C242.863 189.61 242.93 189.583 242.99 189.53C243.023 189.497 243.06 189.463 243.1 189.43C243.167 189.37 243.24 189.34 243.32 189.34C247.467 189.38 251.64 189.353 255.84 189.26C255.933 189.253 256.017 189.28 256.09 189.34C256.157 189.393 256.22 189.457 256.28 189.53C256.34 189.597 256.413 189.63 256.5 189.63Z" fill="#B5B5B5"/>
</svg>
